<mxfile host="" modified="2021-02-07T17:35:01.721Z" agent="5.0 (Macintosh; Intel Mac OS X 10_16_0) AppleWebKit/537.36 (KHTML, like Gecko) Chrome/84.0.4147.105 Safari/537.36" version="13.7.9" etag="gx7ysE0AshEeL4UClPxG" type="embed"><diagram id="GH23K11fsGK_aplWvOlO" name="Page-1"><mxGraphModel dx="904" dy="605" grid="1" gridSize="10" guides="1" tooltips="1" connect="1" arrows="1" fold="1" page="1" pageScale="1" pageWidth="850" pageHeight="1100" math="0" shadow="0"><root><mxCell id="0"/><mxCell id="1" parent="0"/><mxCell id="9" value="" style="edgeStyle=orthogonalEdgeStyle;rounded=0;orthogonalLoop=1;jettySize=auto;html=1;curved=1;" edge="1" parent="1" source="2" target="3"><mxGeometry relative="1" as="geometry"/></mxCell><mxCell id="2" value="Backend API" style="ellipse;whiteSpace=wrap;html=1;" vertex="1" parent="1"><mxGeometry x="265" y="20" width="320" height="140" as="geometry"/></mxCell><mxCell id="3" value="Mongodb" style="shape=cylinder3;whiteSpace=wrap;html=1;boundedLbl=1;backgroundOutline=1;size=15;" vertex="1" parent="1"><mxGeometry x="120" y="20" width="60" height="80" as="geometry"/></mxCell><mxCell id="4" value="Backend Processor" style="ellipse;whiteSpace=wrap;html=1;align=center;verticalAlign=bottom;" vertex="1" parent="1"><mxGeometry x="90" y="240" width="700" height="170" as="geometry"/></mxCell><mxCell id="11" style="edgeStyle=orthogonalEdgeStyle;curved=1;rounded=0;orthogonalLoop=1;jettySize=auto;html=1;entryX=0;entryY=1;entryDx=0;entryDy=0;" edge="1" parent="1" source="5" target="2"><mxGeometry relative="1" as="geometry"/></mxCell><mxCell id="5" value="ParseTask" style="ellipse;whiteSpace=wrap;html=1;" vertex="1" parent="1"><mxGeometry x="180" y="290" width="100" height="70" as="geometry"/></mxCell><mxCell id="12" style="edgeStyle=orthogonalEdgeStyle;curved=1;rounded=0;orthogonalLoop=1;jettySize=auto;html=1;entryX=0.344;entryY=1.014;entryDx=0;entryDy=0;entryPerimeter=0;" edge="1" parent="1" source="6" target="2"><mxGeometry relative="1" as="geometry"/></mxCell><mxCell id="6" value="DeepScanTask" style="ellipse;whiteSpace=wrap;html=1;" vertex="1" parent="1"><mxGeometry x="300" y="290" width="100" height="70" as="geometry"/></mxCell><mxCell id="13" style="edgeStyle=orthogonalEdgeStyle;curved=1;rounded=0;orthogonalLoop=1;jettySize=auto;html=1;entryX=0.581;entryY=1.021;entryDx=0;entryDy=0;entryPerimeter=0;" edge="1" parent="1" source="7" target="2"><mxGeometry relative="1" as="geometry"><mxPoint x="430" y="170" as="targetPoint"/></mxGeometry></mxCell><mxCell id="7" value="ParseTask" style="ellipse;whiteSpace=wrap;html=1;" vertex="1" parent="1"><mxGeometry x="425" y="290" width="100" height="70" as="geometry"/></mxCell><mxCell id="14" style="edgeStyle=orthogonalEdgeStyle;curved=1;rounded=0;orthogonalLoop=1;jettySize=auto;html=1;entryX=1;entryY=1;entryDx=0;entryDy=0;" edge="1" parent="1" source="8" target="2"><mxGeometry relative="1" as="geometry"/></mxCell><mxCell id="8" value="Publish Task" style="ellipse;whiteSpace=wrap;html=1;" vertex="1" parent="1"><mxGeometry x="550" y="290" width="100" height="70" as="geometry"/></mxCell><mxCell id="16" value="" style="ellipse;whiteSpace=wrap;html=1;" vertex="1" parent="1"><mxGeometry x="60" y="480" width="120" height="80" as="geometry"/></mxCell></root></mxGraphModel></diagram></mxfile>